<!--?xml version="1.0" standalone="no"?-->
              <svg id="sw-js-blob-svg" viewBox="0 0 100 100" xmlns="http://www.w3.org/2000/svg" version="1.1">
                    <defs> 
                        <linearGradient id="sw-gradient" x1="0" x2="1" y1="1" y2="0">
                            <stop id="stop1" stop-color="rgba(255, 255, 255, 1)" offset="0%"></stop>
                            <stop id="stop2" stop-color="rgba(255, 255, 255, 1)" offset="100%"></stop>
                        </linearGradient>
                    </defs>
                <path fill="url(#sw-gradient)" d="M26.5,-33.7C32.2,-26.7,33.5,-16.4,35.3,-6.2C37.2,4,39.6,14.2,36.5,22.4C33.3,30.7,24.6,37,15.2,39.6C5.7,42.1,-4.3,40.8,-12.4,36.7C-20.4,32.6,-26.5,25.7,-31.8,17.7C-37.1,9.8,-41.7,0.8,-40.6,-7.5C-39.5,-15.7,-32.7,-23.3,-25,-30C-17.3,-36.7,-8.7,-42.4,0.8,-43.4C10.3,-44.4,20.7,-40.7,26.5,-33.7Z" width="100%" height="100%" transform="translate(50 50)" stroke-width="0" style="transition: all 0.3s ease 0s;" stroke="url(#sw-gradient)"></path>
              </svg>