<?xml version="1.0" standalone="no"?><svg xmlns="http://www.w3.org/2000/svg" viewBox="0 0 1440 320"><path fill="#949fa9" fill-opacity="1" d="M0,96L34.3,128C68.6,160,137,224,206,234.7C274.3,245,343,203,411,202.7C480,203,549,245,617,240C685.7,235,754,181,823,149.3C891.4,117,960,107,1029,106.7C1097.1,107,1166,117,1234,154.7C1302.9,192,1371,256,1406,288L1440,320L1440,320L1405.7,320C1371.4,320,1303,320,1234,320C1165.7,320,1097,320,1029,320C960,320,891,320,823,320C754.3,320,686,320,617,320C548.6,320,480,320,411,320C342.9,320,274,320,206,320C137.1,320,69,320,34,320L0,320Z"></path></svg>