<?xml version="1.0" standalone="no"?><svg xmlns="http://www.w3.org/2000/svg" viewBox="0 0 1440 320"><path fill="#949fa9" fill-opacity="1" d="M0,320L34.3,314.7C68.6,309,137,299,206,277.3C274.3,256,343,224,411,224C480,224,549,256,617,245.3C685.7,235,754,181,823,149.3C891.4,117,960,107,1029,122.7C1097.1,139,1166,181,1234,202.7C1302.9,224,1371,224,1406,224L1440,224L1440,320L1405.7,320C1371.4,320,1303,320,1234,320C1165.7,320,1097,320,1029,320C960,320,891,320,823,320C754.3,320,686,320,617,320C548.6,320,480,320,411,320C342.9,320,274,320,206,320C137.1,320,69,320,34,320L0,320Z"></path></svg>